<svg width="100" height="100" version="1.1" xmlns="http://www.w3.org/2000/svg" desc="Created with imagetracer.js version 1.2.6" ><path fill="rgb(5,199,242)" stroke="rgb(5,199,242)" stroke-width="1" opacity="1" d="M 45 8 L 54.5 8 L 55 8.5 L 55 92 L 45.5 92 L 45 91.5 L 45 8 Z " /><path fill="rgb(5,199,242)" stroke="rgb(5,199,242)" stroke-width="1" opacity="1" d="M 29 25 L 37.5 25 L 38 25.5 L 38 75 L 29.5 75 L 29 74.5 L 29 25 Z " /><path fill="rgb(5,199,242)" stroke="rgb(5,199,242)" stroke-width="1" opacity="1" d="M 62 25 L 70.5 25 L 71 25.5 L 71 75 L 62.5 75 L 62 74.5 L 62 25 Z " /><path fill="rgb(5,199,242)" stroke="rgb(5,199,242)" stroke-width="1" opacity="1" d="M 12 41 L 21 41 L 21 59 L 12 59 L 12 41 Z " /><path fill="rgb(5,199,242)" stroke="rgb(5,199,242)" stroke-width="1" opacity="1" d="M 79 41 L 88 41 L 88 59 L 79 59 L 79 41 Z " /><path fill="rgb(0,0,0)" stroke="rgb(0,0,0)" stroke-width="1" opacity="0" d="M 0 0 L 100 0 L 100 100 L 0 100 L 0 0 Z M 45 8 L 45 92 L 46 92 L 55 92 L 55 9 L 55 8 L 45 8 Z M 29 25 L 29 75 L 30 75 L 38 75 L 38 26 L 38 25 L 29 25 Z M 62 25 L 62 75 L 63 75 L 71 75 L 71 26 L 71 25 L 62 25 Z M 12 41 L 12 59 L 21 59 L 21 41 L 12 41 Z M 79 41 L 79 59 L 88 59 L 88 41 L 79 41 Z " /></svg>